<?xml version="1.0" encoding="UTF-8"?>
<!DOCTYPE svg PUBLIC "-//W3C//DTD SVG 1.1//EN" "http://www.w3.org/Graphics/SVG/1.1/DTD/svg11.dtd">
<!-- Creator: CorelDRAW X7 -->
<svg xmlns="http://www.w3.org/2000/svg" xml:space="preserve" width="167px" height="32px" version="1.1" style="shape-rendering:geometricPrecision; text-rendering:geometricPrecision; image-rendering:optimizeQuality; fill-rule:evenodd; clip-rule:evenodd"
viewBox="0 0 96698 18581"
 xmlns:xlink="http://www.w3.org/1999/xlink">
 <defs>
  <style type="text/css">
   <![CDATA[
    .fil0 {fill:#1F4BFF}
    .fil1 {fill:#1F4BFF;fill-rule:nonzero}
   ]]>
  </style>
 </defs>
 <g id="Layer_x0020_1">
  <metadata id="CorelCorpID_0Corel-Layer"/>
  <path class="fil0" d="M7414 9291l-1840 -1840 789 -788 1839 1839 788 789 -788 788 -1839 1839 -789 -788 1840 -1839zm1876 -9291l1 0c5109,0 9290,4181 9290,9291l0 0c0,2355 -889,4513 -2347,6155l-1973 -1974c955,-1132 1533,-2593 1533,-4181l0 0c0,-3577 -2927,-6504 -6503,-6504l-1 0c-1588,0 -3049,578 -4181,1533l-1974 -1973c1642,-1458 3800,-2347 6155,-2347zm6156 16234c-1642,1458 -3800,2347 -6155,2347l-1 0c-5109,0 -9290,-4181 -9290,-9290l0 0c0,-2356 889,-4513 2347,-6156l1973 1974c-955,1132 -1533,2593 -1533,4182l0 0c0,3576 2927,6503 6503,6503l1 0c1588,0 3049,-578 4181,-1533l1974 1973zm-6155 -4342l3716 0 0 1115 -3716 0 0 -1115z"/>
  <path class="fil1" d="M26248 6354c-2038,0 -3385,995 -3385,2632 0,1476 1091,2166 2679,2567 1476,369 2038,738 2038,1396 0,625 -546,930 -1252,930 -770,0 -1412,-433 -1588,-1364l-2214 0c240,1926 1700,2824 3770,2824 1957,0 3514,-834 3514,-2551 0,-1572 -1027,-2278 -2776,-2727 -1412,-353 -1941,-690 -1941,-1332 0,-529 353,-915 1010,-915 739,0 1172,450 1316,1236l2214 0c-192,-1556 -1347,-2696 -3385,-2696z"/>
  <path id="1" class="fil1" d="M34222 6354c-2038,0 -3385,995 -3385,2632 0,1476 1091,2166 2679,2567 1476,369 2038,738 2038,1396 0,625 -546,930 -1252,930 -770,0 -1412,-433 -1588,-1364l-2214 0c240,1926 1700,2824 3770,2824 1957,0 3514,-834 3514,-2551 0,-1572 -1027,-2278 -2776,-2727 -1412,-353 -1941,-690 -1941,-1332 0,-529 353,-915 1010,-915 739,0 1172,450 1316,1236l2214 0c-192,-1556 -1347,-2696 -3385,-2696z"/>
  <path id="2" class="fil1" d="M47105 8745c-176,-1492 -1219,-2391 -3032,-2391 -818,0 -1444,161 -2054,594l-657 1011 0 -4717 -2215 0 0 11873 2215 0 0 -3899c0,-2375 850,-3289 1925,-3305 1075,0 1572,609 1636,1508 32,433 32,834 32,1187l0 4509 2215 0 0 -4814c0,-690 -16,-1123 -65,-1556z"/>
  <path id="3" class="fil1" d="M65075 6354c-2342,0 -4268,1637 -4268,4557 0,2952 1749,4428 4075,4428 2134,0 3707,-1075 4076,-3177l-2214 0c-225,1075 -867,1621 -1733,1621 -1107,0 -1909,-899 -1909,-3016 0,-1942 802,-2856 1925,-2856 914,0 1556,513 1765,1749l2182 0c-161,-1894 -1589,-3306 -3899,-3306z"/>
  <path id="4" class="fil1" d="M78135 10670c0,-2326 -1380,-4316 -3995,-4316 -2615,0 -4332,1910 -4332,4525 0,3000 1813,4460 4156,4460 2005,0 3609,-1011 4043,-3000l-2214 0c-145,914 -835,1444 -1781,1444 -1027,0 -1829,-562 -1974,-2359l6065 0c32,-288 32,-545 32,-754zm-4091 -2759c1059,0 1668,722 1813,2069l-3755 0c193,-1411 915,-2069 1942,-2069z"/>
  <path id="5" class="fil1" d="M84617 15115l2166 0c-128,-947 -161,-1525 -161,-2166l0 -2760c0,-465 -16,-915 -48,-1316 -128,-1476 -1027,-2519 -3417,-2519 -2038,0 -3594,1091 -3658,3017l2150 -16c64,-931 545,-1444 1428,-1444 866,0 1251,433 1315,1027 32,288 32,545 32,802l0 176 -545 0c-3097,0 -4701,1059 -4701,2936 0,1621 1267,2487 2743,2487 803,0 1525,-160 2118,-561l417 -915 161 1252zm-1845 -1332c-786,0 -1300,-353 -1300,-1107 0,-1123 1187,-1524 2952,-1396l0 690c0,1187 -754,1813 -1652,1813z"/>
  <path id="6" class="fil1" d="M96634 8745c-176,-1492 -1219,-2391 -3032,-2391 -819,0 -1444,161 -2054,594l-658 1011 0 -1380 -2214 0 0 8536 2214 0 0 -3899c0,-2375 851,-3305 1926,-3305 1075,0 1572,609 1636,1508 32,433 32,834 32,1187l0 4509 2214 0 0 -4814c0,-690 -16,-1123 -64,-1556z"/>
  <path id="7" class="fil1" d="M54390 3819c-3418,0 -5472,2279 -5472,5760 0,3466 2054,5760 5472,5760 3401,0 5471,-2294 5471,-5760 0,-3481 -2070,-5760 -5471,-5760zm0 9868c-1974,0 -3161,-1525 -3161,-4108 0,-2599 1187,-4107 3161,-4107 1957,0 3144,1508 3144,4107 0,2583 -1187,4108 -3144,4108z"/>
 </g>
</svg>
